<svg width="82" height="40" viewBox="0 0 82 40" fill="none" xmlns="http://www.w3.org/2000/svg">
<path d="M43.6862 10.2616C43.7959 9.77146 43.4877 9.28238 42.9919 9.20162C41.387 8.9402 39.7509 8.93295 38.1437 9.18015C37.6472 9.25651 37.3347 9.74284 37.4401 10.234V10.234C37.5454 10.7251 38.0287 11.0347 38.5258 10.9622C39.8752 10.7654 41.2465 10.7715 42.5941 10.9802C43.0905 11.0571 43.5765 10.7518 43.6862 10.2616V10.2616Z" fill="#304B59"/>
<rect x="37.3392" y="22.765" width="6.84083" height="3.60129" transform="rotate(45 37.3392 22.765)" fill="#FF8929"/>
<path d="M51.3716 18.4532L39.676 30.1487L37.3735 27.8462L45.8653 19.3543L51.3716 18.4532Z" fill="#FF8929"/>
<path fill-rule="evenodd" clip-rule="evenodd" d="M53.3605 24.2191C53.3605 31.3076 47.6141 37.054 40.5256 37.054C33.4372 37.054 27.6908 31.3076 27.6908 24.2191C27.6908 17.1306 33.4372 11.3843 40.5256 11.3843C45.2211 11.3843 49.3277 13.9057 51.5652 17.6684L46.243 18.6441C44.7927 17.157 42.767 16.2336 40.5256 16.2336C36.1153 16.2336 32.5401 19.8088 32.5401 24.2191C32.5401 28.6294 36.1153 32.2047 40.5256 32.2047C44.9359 32.2047 48.5112 28.6294 48.5112 24.2191C48.5112 23.6724 48.4563 23.1386 48.3516 22.6228L52.1585 18.7887C52.9297 20.438 53.3605 22.2782 53.3605 24.2191Z" fill="#304B59"/>
<rect x="48.6188" y="24.3374" width="4.73282" height="12.7786" fill="#304B59"/>
<path fill-rule="evenodd" clip-rule="evenodd" d="M13.9583 0H12.6215C5.73175 0 0.178833 5.55292 0.178833 12.4427V37.328H5.67366L5.67786 26.0134H5.6235V17.5439H5.68034V12.4427C5.68034 8.58646 8.76529 5.5015 12.6215 5.5015H13.6498C17.3003 5.5015 20.4881 8.12371 20.848 11.7228C21.2128 15.3702 18.7072 18.5324 15.3029 19.202V24.768C21.1676 23.9798 25.9796 19.3046 26.401 13.2653C26.8637 6.01566 21.1051 0 13.9583 0ZM68.7663 12.3398C66.3498 12.4941 64.1389 13.3681 62.3393 14.8078C62.3259 14.7884 62.3393 12.3398 62.3393 12.3398H57.7119V37.2251H63.2648V24.0626C63.2648 20.8965 65.6486 18.2376 68.7035 17.849C68.7244 17.8463 72.5957 17.8049 72.5957 17.8049V12.3398H68.7663ZM81.2802 37.2251C81.2802 37.2251 78.8123 37.328 75.7787 37.328V12.4426H81.2802V37.2251ZM82 4.83309C82 6.73548 80.4575 8.27796 78.5551 8.27796C76.6013 8.27796 75.0589 6.73548 75.0589 4.83309C75.0589 2.9307 76.6013 1.38823 78.5551 1.38823C80.4575 1.38823 82 2.9307 82 4.83309Z" fill="#304B59"/>
<path d="M16.9433 24.4711C13.7055 25.2597 10.2971 24.9442 7.25921 23.5745C4.22131 22.2048 1.72804 19.8595 0.175269 16.911L5.62349 14.8216C5.6458 14.8639 5.66389 15.0496 5.69049 15.0984C6.65544 16.8686 7.64242 17.7152 9.5194 18.5615C11.44 19.4274 13.5949 19.627 15.6419 19.1283L16.9433 24.4711Z" fill="#304B59"/>
</svg>
