<svg width="33" height="33" viewBox="0 0 33 33" fill="none" xmlns="http://www.w3.org/2000/svg">
<path d="M16.5 30.25C24.0939 30.25 30.25 24.0939 30.25 16.5C30.25 8.90608 24.0939 2.75 16.5 2.75C8.90608 2.75 2.75 8.90608 2.75 16.5C2.75 24.0939 8.90608 30.25 16.5 30.25Z" stroke="white" stroke-width="2" stroke-linecap="round" stroke-linejoin="round"/>
<path d="M16.5 24.75C21.0563 24.75 24.75 21.0563 24.75 16.5C24.75 11.9437 21.0563 8.25 16.5 8.25C11.9437 8.25 8.25 11.9437 8.25 16.5C8.25 21.0563 11.9437 24.75 16.5 24.75Z" stroke="white" stroke-width="2" stroke-linecap="round" stroke-linejoin="round"/>
<path d="M16.5 19.25C18.0188 19.25 19.25 18.0188 19.25 16.5C19.25 14.9812 18.0188 13.75 16.5 13.75C14.9812 13.75 13.75 14.9812 13.75 16.5C13.75 18.0188 14.9812 19.25 16.5 19.25Z" stroke="white" stroke-width="2" stroke-linecap="round" stroke-linejoin="round"/>
</svg>
